# xmcd CD database file
#
# Track frame offsets:
#	150
#	13895
#	24035
#	38132
#	49185
#	58925
#	70407
#	82385
#	94007
#	104395
#	116432
#	129895
#
# Disc length: 1893 seconds
#
# Revision: 4
# Processed by: cddbd v1.5.2PL0 Copyright (c) Steve Scherf et al.
# Submitted via: CDex 1.70beta2
#
DISCID=9e07630c
DTITLE=Loretta Lynn - The Best of Loretta Lynn: 20th Century Masters The Millenium Collection
DYEAR=1999
DGENRE=Country
TTITLE0=Coal Miner's Daughter
TTITLE1=You Ain't Woman Enough
TTITLE2=She's Got You
TTITLE3=Lead Me On (Duet With Conway Twitty)
TTITLE4=Don't Come Home A-Drinkin' (With Lovin' On Your Mind)
TTITLE5=Love Is the Foundation
TTITLE6=One's On The Way
TTITLE7=Louisiana Woman, Mississippi Man (Duet With Conway Twitty)
TTITLE8=I Wanna Be Free
TTITLE9=Rated X
TTITLE10=Woman Of The World (Leave My World Alone)
TTITLE11=Blue Kentucky Girl
EXTD=YEAR: 1999
EXTT0=
EXTT1=
EXTT2=
EXTT3=
EXTT4=
EXTT5=
EXTT6=
EXTT7=
EXTT8=
EXTT9=
EXTT10=
EXTT11=
PLAYORDER=
